<?xml version="1.0" encoding="UTF-8"?>
<svg version="1.1" viewBox="0 0 100 100" xmlns="http://www.w3.org/2000/svg" xmlns:xlink="http://www.w3.org/1999/xlink">
 <g id="g108" transform="matrix(1.3817 0 0 1.3817 -84.766 -46.021)" fill-rule="evenodd">
  <path d="m90.97 57.318-26.951 10.785a1.5438 1.5438 124.1 0 0-0.97022 1.4333v10.375a1.4486 1.4486 54.194 0 0 0.99166 1.3747l16.621 5.525a2.856 2.856 178.29 0 0 1.9619-0.05856l26.951-10.784a1.5437 1.5437 124.1 0 0 0.97023-1.4332v-10.376a1.4486 1.4486 54.194 0 0-0.99166-1.3747l-16.621-5.525a2.8558 2.8558 178.29 0 0-1.9619 0.0586z" display="none" fill="#fff"/>
  <path d="m63.048 68.49 18.604 6.1839 28.891-11.561-18.604-6.1839z" fill="#ac4a3c"/>
  <path d="m81.652 74.674v12.466l28.891-11.561v-12.466z" fill="#522723"/>
  <path d="m63.048 68.49 18.604 6.1839v12.466l-18.604-6.1839z" fill="#ea9b66"/>
 </g>
 <use transform="matrix(.91615 0 0 .91615 34.888 12.308)" xlink:href="#g108"/>
 <path d="m42.483 54.113 25.595 8.6277 26.391-9.841-13.814-7.7981-29.595 4.1909z" fill="#522723"/>
 <g transform="matrix(-1.38 -.068176 -.068176 1.38 182.18 -55.075)" fill-rule="evenodd">
  <path d="m64.84 67.851 18.988 7.0795 28.124-10.537-18.604-6.1839z" fill="#ac4a3c"/>
  <path d="m83.827 74.93v12.466l28.124-10.537v-12.466z" fill="#ea9b66"/>
  <path d="m64.84 67.851 18.988 7.0795v12.466l-18.988-7.0794z" fill="#522723"/>
 </g>
</svg>
