<?xml version="1.0" encoding="utf-8"?>
<!-- Generator: Adobe Illustrator 25.0.0, SVG Export Plug-In . SVG Version: 6.00 Build 0)  -->
<svg version="1.1" id="horse" xmlns="http://www.w3.org/2000/svg" xmlns:xlink="http://www.w3.org/1999/xlink" x="0px" y="0px"
	 viewBox="0 0 460.3 501.1" style="enable-background:new 0 0 460.3 501.1;" xml:space="preserve">
<style type="text/css">
	.st0{fill:#423A36;}
	.st1{fill:#2E2521;}
	.st2{fill:#686562;}
	.st3{fill:#2D2824;}
	.st4{fill:#7D7975;}
	.st5{fill:#C5BBB1;}
	.st6{fill:#595552;}
	.st7{fill:none;stroke:#CCCCCC;stroke-width:6;stroke-miterlimit:10;}
	.st8{fill:#AD9C95;}
	.st9{fill:#B3A39B;}
</style>
<path id="base" class="st0" d="M0,501.1h199.4c4-9.9,3.3-22.3,1.3-32.4c-2.4-12.1-5-24.2-7.7-36.3c-0.8-4-9-58.1-8.4-72.8
	c0.6-13.2,2.1-26.3,7.3-38.6c2.2-5.3,5.5-9.9,10-13.6c3.8-2.8,19-17.8,43.4,11.3c7,8.4,16.2,11.8,26.6,15.2
	c11.9,4.3,23.3,9.9,34,16.8l21.4,14.7c12.5,10.7,29.8,54,29.8,54c11.5,13.6,26.4,15,42.5,13.2c2.5-0.4,5-0.6,6.6-2.8
	c0,0,0.1-0.1,0.3-0.2c5.8,2.6,11.7,1.6,17.5,0c1.2,0.1,2.3-0.2,3.4-0.7c10.7-3.3,19.6-10.9,24.4-21c5-9.9,7-20.6,7.9-31.5
	c0.3-3.5,0.5-16.4,0.5-16.4c0.2-4.4-1-8.8-1.8-13c-2-13.4-6-26.3-10.6-39l-24-53.6c-5.4-14.5-11.6-28.8-18.7-42.6
	c-8.4-16.4-17.2-32.5-23-50c-3.6-10.2-6.4-20.7-8.4-31.3c1.2-5.4,1.5-11,1.8-16.4c0.7-11.8-0.3-23.4-4.4-34.5c-0.3-1-0.4-2-0.3-3.1
	c1.1-8.4,1.9-16.8,3.3-25.1c1.1-6.6,3.7-13,4.3-19.7c0.4-4.7,1-9.5-1.8-14c-1.1-2.1-2.8-3.1-5.3-3c-3,0-5.7,0.8-8.2,2.5
	c-8.2,5.2-16.6,14.4-22.8,21.8c-2.4,2.9-1,3.3-2.4,2.2c-0.6-1,0-10.2,0.2-11.1c1.1-3.7,1.9-7.4,2.2-11.2c0.4-4.2,1.2-8.4-1.2-12.3
	c-1.3-3.2-4.7-4.9-8-4.2c-5.6,1-10,4.2-14.6,7.4c-8.3,6-17.6,18.9-23.4,27.4c-6,2.2-195.4,101.4-211.2,116
	c-28.7,27-65.2,36.5-78.4,73.6C1.1,233,0,239.5,0,246.1"/>
<path id="base-bottom" class="st1" d="M345.4,393.4c-19.8-27.4-60.6-53.1-87.1-65c-18.9-8.4-23.5-21.2-41.9-20.5
	c-31.7-1-31.3,59.1-30.4,65.3c0.1,0.4,0.1,0.8,0.1,1.2c0.2,6.6,3.2,29.4,7.6,52.5c0,0.2,10.9,49.1,14.6,74.3
	c0,0.3-82.5,4.5-84.1,0.1c-7.6-21.4,5.2-110.2,11.3-150.2c5.5-38.5,32.9-81.3,66.8-114.2c6.6-6.5,17.6-0.5,15.8,8.6
	c-4.3,21.1-4.5,47.3,22.5,62.1c8.2,4.5,24.8,17.9,32.9,18.2c11.7,0.3,21.8-3.7,30.3-12c0.5-0.8,1.3-1.4,2.3-1.7l0,0
	c0,1.2-0.2,2.3-0.6,3.4c-2.1,5.5-5.6,10.1-9.7,14.4c-1.1,1.3-7.6,4.2-7,5.8c1.8,4.4,13.8,11,17.7,13.1c16,8.4,29.8,21.9,38.5,34.6
	c13.1,19,12.8,33.8,12.1,36.1"/>
<path id="ears-back" class="st2" d="M338.8,6c-6-2.6-11-1.7-15.6,1.7c-5.1,3.7-9.7,7.9-14,12.4c-5.3,5.4-9.8,11.6-13.2,18.3
	c-5.3,11.2-11.8,21.8-19.5,31.6c-9.8,12-13,28.1-8.6,43c-3.2-4-3.6-9-4.6-13.7c-0.7-14.7,4.6-29.1,14.7-39.8
	c5-5.6,8.4-12.3,11.5-19.1c1.8-3.7,3.7-7.4,5.6-11c5.8-8.5,13-15.9,21.3-22c4.5-3.1,9-6.4,14.6-7.3c3.6-0.6,6.4,2.8,7.8,6"/>
<path id="ears-front" class="st3" d="M297.5,99.4c3.2-7.9,0.8-15,0-22.3c-0.7-6.6-0.4-13.1,0.9-19.6c3.4-19.8,15.1-37.1,32.3-47.5
	c3.1-2,4.6-1.1,4.6,2.6c0.2,7.3-2.4,14-4.1,20.9c-1.7,7.1-2.9,14.3-3.7,21.6c-1.4,14.5-8.3,27.8-19.3,37.3
	C305.2,95,302.1,97.7,297.5,99.4"/>
<path id="eye" d="M324.2,202.5l-1.5-2.2c8-2.5,15.9-6,24.4-4.1c6,1.3,8.7,3.5,10.1,11.7c0.6,3.2,1.3,6.3,3,9.1
	c0.5,0.8,1.5,1.7,0.6,2.6c-0.8,0.8-1.8,0.2-2.7-0.2l-1-0.3c-2.7-3-6.1-1.8-9.3-1.3c-8.9,1.9-17.8-2.8-21.4-11.1
	C325.7,205.3,325.4,203.7,324.2,202.5 M347.2,200.4c-1.4,0.1-2.6,1.3-2.5,2.7c0,0,0,0,0,0c0,1.6,1,2.9,2.7,2.8
	c1.7-0.1,2.5-1,2.6-2.7C350,201.5,349.1,200.6,347.2,200.4"/>
<path id="eye-lid-bottom" d="M357.1,229.7c-6,1.8-11.2,4.8-17.5,4.5c-13.6-0.8-22.5-9-24.7-22.4l-0.8-6.4c1.6,1.3,1.5,3,2,4.3
	c3.9,10.1,12.8,17.4,23.4,19.3c4.8,0.9,9.7,0.1,14.6,0.2C355,229.2,356,229,357.1,229.7"/>
<path id="eye-lid-middle" class="st4" d="M324.2,202.5c1.1,1.2,1.5,2.8,2.2,4.2c3.6,8.3,12.6,12.9,21.4,11c3.2-0.4,6.6-1.6,9.4,1.4
	c-5.4-0.5-10.7,1.4-16.1,0.5c-9.5-1.7-14.8-6.7-16.7-16.1L324.2,202.5z"/>
<path id="eye-lid-top" class="st4" d="M319.3,191.7c2.5-4.9,6.4-7.3,10.5-9.4c7.4-4.3,16.4-5,24.4-1.8c3.3,1.4,6.3,3.3,7.6,7
	c0.3,0.7,0.6,1.5,0,2.4c-2.6-1.2-4.9-3-7.7-3.7c-9.6-1.9-19.5-0.9-28.4,3L319.3,191.7z"/>
<path id="eye-lid-top-detail" d="M357.5,196.5c-10.6-7-21.5-3.8-33-0.4c2.4-2.1,4.7-2.7,7-3.5c5.6-2.3,11.7-3,17.6-2
	C352.6,191.5,355.4,193.5,357.5,196.5"/>
<path id="eye-pupil" class="st5" d="M347.2,200.4c1.9,0.2,2.8,1.1,2.8,2.8c-0.1,1.7-0.9,2.6-2.6,2.7c-1.7,0-2.7-1.2-2.7-2.8
	C344.8,201.6,345.6,200.7,347.2,200.4"/>
<path id="head-front" class="st6" d="M412,270.7c-1.7-5.1-4.5-9.7-7-14.4c-2.3-4.7-5-9.1-8.1-13.4c-1-3-3.3-5.4-4.8-8.1
	c-3.2-5.9-5-12.3-7.4-18.5c-1.6-4.2-2.6-8.6-3.9-13c-1.2-11.9-6.1-23.1-14-32c-3.6-4.3-8.3-6.5-14.4-4.8c-6.6,1.8-13.7,0.7-19.4-3
	c-6.5-4-11-9.2-10-17.7c0.6-4.4,1.8-8.8,2-13.2c3.5-1.8,7.4-1.8,11-3.3l14.4-2.9c4-0.7,19.5-2.3,20.5-3.2c1.3,0.9,2.8,5,3.9,5
	c1.7,10.7,5,21,8.4,31.3c5.9,17.5,14.7,33.7,23,50c7.1,13.8,13.3,28,18.7,42.6c1.5,4,17.4,37,17.4,37c2.9,5.3,4.7,11,6.7,16.6
	c4.6,12.7,8.5,25.6,10.6,39c0.7,4.2,0.8,9,0.5,13.4c-4.2-1.2-5.3-5.6-7.9-8.6c-5.7-7.9-10.7-16.3-14.9-25.1
	c0-0.7-8.2-17.4-11.8-25.4L412,270.7z"/>
<path id="mouth-line" d="M378,370.4c2.4,1.3,3.3,3.7,4.5,5.9c5.8,10.1,10.4,20.9,15.3,31.5c2.1,4.5,4.2,9,8,12.6
	c2.6,2.5,5.7,3.9,9,5.2c2.2,0.8-5.6,6-11.5,3.4c-7-12.8-10.7-27-17.5-40c-2.1-4.3-4.5-8.3-7.3-12C376.8,374.8,377.1,372.7,378,370.4
	"/>
<path id="nose" d="M442,358.3c-5.4,2-6.3,6-2.6,10c3.5,3.6,6,7.6,5.7,12.9c-0.2,3.7-1.7,7-3.7,10.2c-1.3,1.9-2.1,4.1-4.1,5.6
	c1.7-3.6,2.3-7.3,1.9-12l-1.5,3.8c-1.5,3.6-3.9,6.3-8,7c-6.2,0.8-9-3.2-10.2-8.3c-2.5-11.3,2.4-22.9,12.1-29.1
	C434.9,356.4,438.2,356,442,358.3"/>
<path id="nose-detail" class="st6" d="M423.3,356l-5.3,7c-5.8,8.2-6.1,23.6,0,31.7c3.4,4.4,7.8,7.5,14,6l0.4,0.2
	c-5.2,5.4-15.7,4.1-19.7-2.1c-9.3-13.7-5.8-32.4,7.9-41.7c0.5-0.4,1.1-0.7,1.6-1L423.3,356z M380.1,371.4c2.5,1.4,4.4,3.2,5.7,5.5
	c5.8,10.2,10.4,21,15.3,31.5c2.2,4.5,4.2,9.1,8,12.7c2.7,2.3,5.7,3.9,9,5c2.2,0.9,4.3,2.1,6.2,3.6c-5.9,1.5-11.8,2.5-17.6,0
	c-7-13-10.8-27.1-17.6-40c-2.1-4.3-4.5-8.3-7.3-12.1C380.1,375.4,379.2,373.6,380.1,371.4"/>
<circle id="harness-nose-ring" class="st7" cx="360.5" cy="359.1" r="16"/>
<circle id="harness-nose-ring_1_" class="st7" cx="260.9" cy="149.9" r="16"/>
<path id="harness-face-strap_1_" class="st8" d="M440,284.2c0.9,0.4,3.5,1.5,5.2,4.2c2.6,4.1,1.2,8.6,1,9.2c-1.6,0.5-4,1.4-6.8,2.7
	c-9.3,4.2-15.4,9.6-18.9,12.6c-15.2,13.1-30.9,27.8-45.1,42c-0.5,0.4-1.2,0.9-2.2,1.2c-3.5,0.9-6.5-2.1-6.8-2.4
	c-2.7-2.8-2.4-6.5-2.4-7.1c19.5-18,39-36.1,58.5-54.1C428.3,289.8,434.1,287,440,284.2z"/>
<path id="harness-body-straps" class="st9" d="M349.3,365.6c-1.2,0.2-1.6,1.2-2.9,2.5c-1.1,1.2-2.8,2.4-6.1,4.6c0,0-4.5,3-9.5,5.3
	c-95.4,44.5-180.1,31.5-180.1,31.5c-15.6-2.8-30.9-6.5-46-11.2l-5-1.7l-3-1l-2.4-1c-11.3-4.1-22.3-8.7-33.1-13.9
	C39.5,370,19,357,0,342.1v14.1c0.5,0.3,2.2,1.4,2.8,1.8c21.7,15.4,37.9,26.7,62.1,37.4c8.3,3.7,16.5,7.6,25.3,10.2l1.4,0.6l8.3,2.8
	l2,0.9c17.2,6.3,43.4,13.8,75.8,14.7c22.6,0.6,39.4-2.2,54.9-4.9c59.3-10.3,109.8-33.6,109.8-33.6l0,0c3.9-1.9,6.7-4,8.6-5.6
	c2.1-1.8,6.7-5.9,5.9-8.8c-0.6-2.3-2.3-3.9-2.3-3.9c-0.1-0.1-0.1-0.1-0.2-0.2C353.2,366.4,351,365.2,349.3,365.6z M258.6,162.7
	c-0.6-0.9-1.8-2.6-3.9-3.9c-1.8-1.2-3.6-1.6-4.7-1.7c-9.4,48.1-28.7,147.6-26.5,151.3c0.5,0.8,1.1,1.4,1.1,1.4
	c2.1,2,5.1,2.1,7.8,1.9C241.1,262,249.9,212.3,258.6,162.7z M357.8,346.4c-0.2,0.9-0.8,3.3-3.1,5.4c-2.6,2.3-5.5,2.5-6.3,2.5
	c-17.8-24.1-38-55.8-55.7-95c-16.2-35.9-26.3-69-32.7-96.5c0.2-0.7,0.9-2.4,2.6-3.5c2.1-1.4,4.9-1.4,7.3-0.1
	c5.5,18.9,12.3,38.8,20.5,59.5C310.6,269.6,334.7,312.1,357.8,346.4z M262.8,137L262.8,137c-2.5-13.3-2.4-20.6-2.4-20.6
	c0.1-3.8,0.6-9.4,3-16.2c-0.9-6.9,2-19,2-19s0.2-8.4-1.2-8.5c-0.3,1.1-11.9,23.6-12.8,34.3c-0.8,7.5-0.5,13.4,0,17.4
	c0.7,5.9,2.3,14.5,2.3,14.5l0,0c0,0,3.1,2,5.5,1.3C261.2,139.7,262.8,137,262.8,137z"/>
<path id="harness-nose-buckle" class="st9" d="M376.8,378.2c-2.4,0.2-5.3,0-7.8-1.8c-3-2-3.8-5.5-2-8.5c1.8-2.9,5.1-3.5,8.3-1.7
	c2.3,1.3,4,3.1,5.2,5.4C382.3,374.9,381.1,377.4,376.8,378.2"/>
<path id="harness-brow-strap_1_" class="st9" d="M273.4,153.2c-2.4-0.4-4.3-2.1-5.1-4.3c-0.8-2.6,0.2-5.6,2.5-7.3
	c10.1-6.5,25.5-14.8,45.8-19.9c23.5-6,43.6-5.2,56.3-3.7l2,12c-10.2-0.2-24.9,0.2-42.6,2.8c-3.7,0.5-8.5,1.2-14.1,2.5
	C307.6,137.6,291.8,142.4,273.4,153.2z"/>
<path id="mane-back" d="M253.7,98.4c-2.7,2-8,26.7-8,26.7c-0.8-3.4-3.1-5.8-4.3-9.5c-2.2,4-3,8.1-4.6,12.5
	c-4.6-8.8-6.8-18.7-6.3-28.7c-4.2,11.2-11,21.3-19.8,29.4c0-3.1,0.7-6,1-9V111h-0.8c-5,18.1-13,34.5-27.4,47.2
	c0.6-5.4,0.3-10.7,0.7-16c-1,0.3-1,1-1.1,1.6c-1,4.1-2.6,7.9-4.8,11.4c-1.1,1.6-2,2-3.8,1c-4.8-2.4-8.4-6.8-9.6-12l-0.9-2.7
	c-5.6,19.4-12.5,37.3-30.4,49.5c0.6-5.7,1.5-10.7,1.5-15.7s-0.6-10-1.8-15c-2,4.4-3.6,8.9-5.8,13c-2.3,4.3-5.1,8.2-8.2,11.8
	c-4.9,5.7-8.5,8.7-10.8,9c1.6-4.2,2.8-8.4,1.8-13.4c-2.5,4.3-4.9,8.2-7.2,11.9c-4.1,5.7-8.1,11.5-12,17.4c-4.6,6.9-7.9,14.4-10,22.4
	c-0.2,0.8-0.3,1.8-1.3,2.3c-8-7.8-9.7-17.8-9.4-28.6c-5,13.5-9.8,27-18.7,38.3c-0.5-3.1-0.9-6.2-1.3-9.2c-0.3-3-1.3-6.1-2.8-9.2
	c-5.5,17.6-12.2,34-25,47.1c0.5-7.3-1.1-14.2-3.2-21.3l-0.8,1.1C15.1,262.4,7.3,271.8,0,279c0,3.5,0-71.7,0-78.3
	c27.7-28.4,88.8-69,126.1-94.1C173,79,222.8,59.1,232.9,55.1c5.5-3,52.8-16.7,58.7-18.9c-2,3.7-0.2,1.4-2,5
	c-2.9,6.9-6.8,13.4-11.5,19.2C267,73.2,267.6,75.3,265,82.9"/>
<path id="mane-front" d="M334.3,50.4c-2,8-3,20-3.4,30.6c-1.4,24.4-6,21.5,6,39.7l-2.4-17.2l15.2,21.7l-3.9-21.6
	c6.5,10.4,13.6,20.5,21.3,30l-3.5-17.7c3.7,5.6,10.2,12,13.5,18c5-15.5-2.6-57.9-2.6-57.9s-7.2-21.2-30.7-36.9l-6.1-2.9L334.3,50.4z
	"/>
<path class="st7" d="M269.9,159.2"/>
</svg>
