<svg xmlns="http://www.w3.org/2000/svg" xml:space="preserve" id="horse" x="0" y="0" viewBox="0 0 460.3 501.1"><style>.st1{fill:#2e2521}.st2{fill:#595552}.st5{fill:#b3a39b}.st7{fill:#7d7975}</style>
  <path
    id="base"
    d="M0 501.1h199.4c4-9.9 3.3-22.3 1.3-32.4q-3.6-18.2-7.7-36.3c-.8-4-9-58.1-8.4-72.8.6-13.2 2.1-26.3 7.3-38.6q3.3-8 10-13.6c3.8-2.8 19-17.8 43.4 11.3 7 8.4 16.2 11.8 26.6 15.2a170 170 0 0 1 34 16.8l21.4 14.7c12.5 10.7 29.8 54 29.8 54 11.5 13.6 26.4 15 42.5 13.2 2.5-.4 5-.6 6.6-2.8q0 0 .3-.2c5.8 2.6 11.7 1.6 17.5 0q1.8.1 3.4-.7a40 40 0 0 0 24.4-21c5-9.9 7-20.6 7.9-31.5.3-3.5.5-16.4.5-16.4.2-4.4-1-8.8-1.8-13-2-13.4-6-26.3-10.6-39l-24-53.6a401 401 0 0 0-18.7-42.6c-8.4-16.4-17.2-32.5-23-50a202 202 0 0 1-8.4-31.3c1.2-5.4 1.5-11 1.8-16.4.7-11.8-.3-23.4-4.4-34.5q-.5-1.5-.3-3.1c1.1-8.4 1.9-16.8 3.3-25.1 1.1-6.6 3.7-13 4.3-19.7.4-4.7 1-9.5-1.8-14q-1.6-3.2-5.3-3-4.5 0-8.2 2.5a81 81 0 0 0-21.2 19.4c-2-.5-2.4-2.6-3.8-3.7-.6-1-.2-1.9 0-2.8q1.7-5.5 2.2-11.2c.4-4.2 1.2-8.4-1.2-12.3a7 7 0 0 0-8-4.2c-5.6 1-10 4.2-14.6 7.4a91 91 0 0 0-21.3 21.9c-6 2.2-11.4 5.5-16.9 8.5a74 74 0 0 1-30 10.1q-20 1.6-39.5 6.8a403 403 0 0 0-89 34.7 253 253 0 0 0-52.5 37.4 249 249 0 0 0-63.8 97.6A53 53 0 0 0 0 246.1m341.2 97.3"
    style="fill:#423a36"
  />
  <path
    id="base-bottom"
    d="M345.4 393.4c-19.8-27.4-60.6-53.1-87.1-65-18.9-8.4-23.5-21.2-41.9-20.5-32.6-1-31.3 62.6-30.3 65.7 0 5.4 3 29.4 7.7 53.6 2.2 21.5 17.5 55.2 5 73.3h-55c-6.6-38.6-14.6-107.5-8.2-149.5 6.7-46.8 45.8-100 89.5-134-1.8 15.2-27.1 67 15.5 90.5 8.2 4.5 24.8 17.9 32.9 18.2q17.6.4 30.3-12 .8-1.2 2.3-1.7v1.6c-2 6.3-5.8 11.5-10.3 16.2-1.1 1.3-7.6 4.2-7 5.8 1.8 4.4 13.8 11 17.7 13.1 16 8.4 29.8 21.9 38.5 34.6 13.1 19 17 36.5 16.3 38.8"
    class="st1"
  />
  <path
    id="base-middle"
    d="M62 501c8.6-119.9 40-207.1 64-237.2 15-18.6 35.3-36.6 35.3-36.6a272 272 0 0 1 43.5-30.2c33.9-20.1 41.8-10.5 20.2 20.5a279 279 0 0 0-45.3 44.4 236 236 0 0 0-25 37.2s-7.4 14-12.9 29.7c-9.3 26.7-12.2 90.6 2.1 172.2z"
    class="st2"
  />
  <path
    id="ears-back"
    d="M338.8 6c-6-2.6-11-1.7-15.6 1.7q-7.6 5.6-14 12.4A74 74 0 0 0 296 38.4 165 165 0 0 1 276.5 70a47 47 0 0 0-8.6 43c-3.2-4-3.6-9-4.6-13.7A54 54 0 0 1 278 59.5c5-5.6 8.4-12.3 11.5-19.1q2.7-5.6 5.6-11a91 91 0 0 1 21.3-22c4.5-3.1 9-6.4 14.6-7.3 3.6-.6 6.4 2.8 7.8 6"
    style="fill:#686562"
  />
  <path
    id="ears-front"
    d="M297.5 99.4c3.2-7.9.8-15 0-22.3q-1-9.9.9-19.6A69 69 0 0 1 330.7 10q4.6-3 4.6 2.6c.2 7.3-2.4 14-4.1 20.9a168 168 0 0 0-3.7 21.6 56 56 0 0 1-19.3 37.3c-3 2.6-6.1 5.3-10.7 7.1"
    style="fill:#2d2824"
  />
  <path
    id="eye"
    d="m324.2 202.5-1.5-2.2c8-2.5 15.9-6 24.4-4.1 6 1.3 8.7 3.5 10.1 11.7.6 3.2 1.3 6.3 3 9.1.5.8 1.5 1.7.6 2.6-.8.8-1.8.2-2.7-.2l-1-.3c-2.7-3-6.1-1.8-9.3-1.3a19 19 0 0 1-21.4-11.1c-.7-1.4-1-3-2.2-4.2m23-2.1a2.6 2.6 0 0 0-2.5 2.7c0 1.6 1 2.9 2.7 2.8q2.5-.2 2.6-2.7 0-2.5-2.8-2.8"/>
  <path
    id="eye-lid-bottom"
    d="M357.1 229.7c-6 1.8-11.2 4.8-17.5 4.5-13.6-.8-22.5-9-24.7-22.4l-.8-6.4c1.6 1.3 1.5 3 2 4.3a31 31 0 0 0 23.4 19.3c4.8.9 9.7.1 14.6.2.9 0 1.9-.2 3 .5"/>
  <path
    id="eye-lid-middle"
    d="M324.2 202.5c1.1 1.2 1.5 2.8 2.2 4.2a19 19 0 0 0 21.4 11c3.2-.4 6.6-1.6 9.4 1.4-5.4-.5-10.7 1.4-16.1.5-9.5-1.7-14.8-6.7-16.7-16.1z"
    class="st7"
  />
  <path
    id="eye-lid-top"
    d="M319.3 191.7c2.5-4.9 6.4-7.3 10.5-9.4a28 28 0 0 1 24.4-1.8c3.3 1.4 6.3 3.3 7.6 7 .3.7.6 1.5 0 2.4-2.6-1.2-4.9-3-7.7-3.7a48 48 0 0 0-28.4 3z"
    class="st7"
  />
  <path id="eye-lid-top-detail" d="M357.5 196.5c-10.6-7-21.5-3.8-33-.4 2.4-2.1 4.7-2.7 7-3.5a32 32 0 0 1 17.6-2q5.3 1.4 8.4 5.9"/>
  <path id="eye-pupil" d="M347.2 200.4q2.8.3 2.8 2.8-.1 2.6-2.6 2.7c-1.7 0-2.7-1.2-2.7-2.8q.1-2.3 2.5-2.7" style="fill:#c5bbb1"/>
  <path
    id="head-front"
    d="M412 270.7c-1.7-5.1-4.5-9.7-7-14.4q-3.5-7-8.1-13.4c-1-3-3.3-5.4-4.8-8.1-3.2-5.9-5-12.3-7.4-18.5-1.6-4.2-2.6-8.6-3.9-13a57 57 0 0 0-14-32c-3.6-4.3-8.3-6.5-14.4-4.8a24 24 0 0 1-19.4-3c-6.5-4-11-9.2-10-17.7.6-4.4 1.8-8.8 2-13.2 3.5-1.8 7.4-1.8 11-3.3l14.4-2.9c4-.7 19.5-2.3 20.5-3.2 1.3.9 2.8 5 3.9 5 1.7 10.7 5 21 8.4 31.3 5.9 17.5 14.7 33.7 23 50q10.6 20.7 18.7 42.6c1.5 4 17.4 37 17.4 37 2.9 5.3 4.7 11 6.7 16.6 4.6 12.7 8.5 25.6 10.6 39 .7 4.2.8 9 .5 13.4-4.2-1.2-5.3-5.6-7.9-8.6a167 167 0 0 1-14.9-25.1c0-.7-8.2-17.4-11.8-25.4z"
    class="st2"
  />
  <path
    id="mane-back"
    d="M254.5 101.7c-2.7 2-8.8 23.4-8.8 23.4-.8-3.4-3.1-5.8-4.3-9.5-2.2 4-3 8.1-4.6 12.5a56 56 0 0 1-6.3-28.7 76 76 0 0 1-19.8 29.4c0-3.1.7-6 1-9V111h-.8c-5 18.1-13 34.5-27.4 47.2.6-5.4.3-10.7.7-16-1 .3-1 1-1.1 1.6q-1.5 6.2-4.8 11.4c-1.1 1.6-2 2-3.8 1a18 18 0 0 1-9.6-12l-.9-2.7c-5.6 19.4-12.5 37.3-30.4 49.5.6-5.7 1.5-10.7 1.5-15.7q0-7.5-1.8-15c-2 4.4-3.6 8.9-5.8 13q-3.5 6.4-8.2 11.8-7.4 8.6-10.8 9c1.6-4.2 2.8-8.4 1.8-13.4q-3.7 6.4-7.2 11.9-6.2 8.6-12 17.4-6.9 10.4-10 22.4c-.2.8-.3 1.8-1.3 2.3-8-7.8-9.7-17.8-9.4-28.6-5 13.5-9.8 27-18.7 38.3q-.7-4.7-1.3-9.2-.5-4.5-2.8-9.2c-5.5 17.6-12.2 34-25 47.1.5-7.3-1.1-14.2-3.2-21.3l-.8 1.1Q13.3 267.2 2.4 278c-1.2 1.2-2.2-7.7-2.4-33.3q0-10.1 3.5-19.3a249 249 0 0 1 63.8-97.6 253 253 0 0 1 52.4-37.5 404 404 0 0 1 89-34.6q19.5-5.2 39.6-6.8a74 74 0 0 0 30-10.1c5.5-3 11-6.4 16.9-8.6q-3 5.5-5.6 11a78 78 0 0 1-11.5 19.2 54 54 0 0 0-14.7 39.8s-7 .2-8.9 1.5"/>
  <path
    id="mane-front"
    d="M334.6 47.1c-2 8-3 20-3.4 30.6-1.4 24.4-6 21.5 6 39.7l-2.4-17.2 15.2 21.7-3.9-21.6a290 290 0 0 0 21.3 30l-3.5-17.7c3.7 5.6 7.7 12 11 18 5-15.5 2.9-43.3-4.7-55.9-6.8-13.7-7.4-33.4-25.9-36.4l-5.5-4.7z"/>
  <path
    id="mouth-line"
    d="M378 370.4c2.4 1.3 3.3 3.7 4.5 5.9 5.8 10.1 10.4 20.9 15.3 31.5 2.1 4.5 4.2 9 8 12.6 2.6 2.5 5.7 3.9 9 5.2 2.2.8-5.6 6-11.5 3.4-7-12.8-10.7-27-17.5-40q-3.1-6.4-7.3-12c-1.7-2.2-1.4-4.3-.5-6.6"/>
  <path
    id="nose"
    d="M442 358.3c-5.4 2-6.3 6-2.6 10 3.5 3.6 6 7.6 5.7 12.9-.2 3.7-1.7 7-3.7 10.2-1.3 1.9-2.1 4.1-4.1 5.6 1.7-3.6 2.3-7.3 1.9-12l-1.5 3.8c-1.5 3.6-3.9 6.3-8 7-6.2.8-9-3.2-10.2-8.3a27.5 27.5 0 0 1 12.1-29.1c3.3-2 6.6-2.4 10.5-.1"
  />
  <path
    id="nose-detail"
    d="m423.3 356-5.3 7c-5.8 8.2-6.1 23.6 0 31.7 3.4 4.4 7.8 7.5 14 6l.4.2c-5.2 5.4-15.7 4.1-19.7-2.1a30 30 0 0 1 9.5-42.7zM380.1 371.4q3.8 2.1 5.7 5.5c5.8 10.2 10.4 21 15.3 31.5 2.2 4.5 4.2 9.1 8 12.7q4.1 3.4 9 5 3.3 1.4 6.2 3.6c-5.9 1.5-11.8 2.5-17.6 0-7-13-10.8-27.1-17.6-40q-3.1-6.4-7.3-12.1c-1.7-2.2-2.6-4-1.7-6.2"
    class="st2"
  />
  <path
    id="harness-body-straps"
    d="M253.3 213c2.3-16.2 11-99.8 10.2-113.8-4.5.5-8.3 1-11.1-.4-.7 12.4-8 91.5-13.3 125.2-3.2 20.7-17.2 71.3-17.3 78.2 0 6.5 3.8 10.2 10.3 9.8-1.4-4 18.2-77.3 21.2-99M356.7 344a21 21 0 0 0-12 4.9c-1.9-4.5-30.9-44.3-52-89.6-20-43.2-32.2-92-33.6-96.3 5.1-1.3 8.4-2.9 11.6-5.7 1.3 4.5 14.3 54.5 34.8 98.4 21 44.7 49.5 83.3 51.2 88.2M353.4 372.8l-4-5.8q-1.4-1.8-2.8-.1-2.4 2.4-5 4.1c-3.6 2.4-6.9 5.1-10.8 7-40.7 19.6-135.7 38.7-180.1 31.5a373 373 0 0 1-46-11.2l-5-1.7-3-1-2.4-1a352 352 0 0 1-33.1-13.9A354 354 0 0 1 0 342.1v14.8c.8-.1 2.5.4 3 .8 21.7 15.3 37.7 27 61.9 37.7 8.3 3.7 16.5 7.6 25.3 10.2l1.4.6 8.3 2.8 2 .9c24.6 8 49.8 13.2 75.8 14.7 34.4 2 117.6-17.4 150.8-33 1-.5 19.4-10.5 24.2-14.5q2.3-1.8.7-4.3"
    class="st5"
  />
  <path
    id="harness-brow-strap"
    d="m269.5 155.3-2.8-13.6s37.4-16.7 50-20A228 228 0 0 1 373 118l2 12s-41.2-.4-55.3 3c-12.4 3.2-50.2 22.3-50.2 22.3"
    class="st5"
  />
  <path
    id="harness-face-strap"
    d="M433.7 271.1c2.3 4.2 4 8.7 6.2 12.8.8 1.4-54.8 26.6-76.2 42.6a760 760 0 0 0-44.1 41c-1 2.2-12.6-7-12-8.4 2.6-5.2 36.7-38.3 54-50.6 17.5-12.3 71.7-37 72.1-37.4"
    style="fill:#ad9c95"
  />
  <path
    id="harness-neck-ring-fill"
    d="m268 160-.7.6q-9.5 6.1-18.6-.6l-.6-.7-1.4-1.8c-2.7-5.2-3.5-10.5-.1-15.7 4.9-7.4 12.7-8.7 20.9-3.7 6.3 7 6.7 13.4 1 21.2z"
    class="st5"
  />
  <circle id="harness-neck-ring" cx="258" cy="148.2" r="16" class="st5"/>
  <path
    id="harness-nose-buckle"
    d="M376.8 378.2c-2.4.2-5.3 0-7.8-1.8-3-2-3.8-5.5-2-8.5 1.8-2.9 5.1-3.5 8.3-1.7q3.4 2 5.2 5.4c1.8 3.3.6 5.8-3.7 6.6"
    class="st5"
  />
  <circle id="harness-nose-ring" cx="360.5" cy="359.1" r="16" style="fill:none;stroke:#b3a39b;stroke-width:6;stroke-miterlimit:10"/>
</svg>
