<?xml version="1.0" encoding="UTF-8" standalone="no"?>
<!-- Created with Inkscape (http://www.inkscape.org/) -->

<svg
   viewBox="0 0 99.999996 99.999996"
   version="1.1"
   id="svg1"
   inkscape:version="1.4.2 (ebf0e940d0, 2025-05-08)"
   sodipodi:docname="infantry-defence.inkscape.svg"
   xmlns:inkscape="http://www.inkscape.org/namespaces/inkscape"
   xmlns:sodipodi="http://sodipodi.sourceforge.net/DTD/sodipodi-0.dtd"
   xmlns="http://www.w3.org/2000/svg"
   xmlns:svg="http://www.w3.org/2000/svg">
  <sodipodi:namedview
     id="namedview1"
     pagecolor="#505050"
     bordercolor="#eeeeee"
     borderopacity="1"
     inkscape:showpageshadow="0"
     inkscape:pageopacity="0"
     inkscape:pagecheckerboard="0"
     inkscape:deskcolor="#505050"
     inkscape:document-units="px"
     inkscape:zoom="2.0000001"
     inkscape:cx="11.499999"
     inkscape:cy="39.749998"
     inkscape:window-width="1892"
     inkscape:window-height="1004"
     inkscape:window-x="12"
     inkscape:window-y="62"
     inkscape:window-maximized="1"
     inkscape:current-layer="g4"
     showgrid="false" />
  <defs
     id="defs1">
    <inkscape:path-effect
       effect="fillet_chamfer"
       id="path-effect7"
       is_visible="true"
       lpeversion="1"
       nodesatellites_param="F,0,0,1,0,0,0,1 @ F,0,0,1,0,0,0,1 @ F,0,0,1,0,0,0,1 @ F,0,0,1,0,0,0,1"
       radius="0"
       unit="px"
       method="auto"
       mode="F"
       chamfer_steps="1"
       flexible="false"
       use_knot_distance="true"
       apply_no_radius="true"
       apply_with_radius="true"
       only_selected="false"
       hide_knots="false" />
    <inkscape:path-effect
       effect="fillet_chamfer"
       id="path-effect6"
       is_visible="true"
       lpeversion="1"
       nodesatellites_param="F,0,0,1,0,0,0,1 @ F,0,0,1,0,2.8397113,0,1 @ F,0,0,1,0,0,0,1 @ F,0,0,1,0,0,0,1"
       radius="0"
       unit="px"
       method="auto"
       mode="F"
       chamfer_steps="1"
       flexible="false"
       use_knot_distance="true"
       apply_no_radius="true"
       apply_with_radius="true"
       only_selected="false"
       hide_knots="false" />
  </defs>
  <g
     inkscape:groupmode="layer"
     id="g4"
     inkscape:label="Shield base"
     transform="matrix(1.2841736,0,0,1.1505877,-15.680974,-7.1529814)">
    <path
       id="path3"
       style="fill:#c3bfba;fill-opacity:1;stroke-width:1.08587;stroke-linecap:round;stroke-linejoin:bevel"
       d="M 51.146484,6.2167969 C 27.168212,7.6707014 26.423444,18.859579 12.210938,24.496094 17.03846,59.143609 22.387685,85.875862 51.146484,93.128906 81.772144,86.320608 85.27659,58.985789 90.082031,24.496094 76.190847,16.626068 72.387392,7.3460763 51.146484,6.2167969 Z"
       sodipodi:nodetypes="ccccc" />
    <path
       id="path5"
       style="fill:#a05a36;fill-opacity:1;stroke-width:1.00195;stroke-linecap:round;stroke-linejoin:bevel"
       d="M 51.146484,9.575554 C 31.848399,9.5553585 28.839582,20.413073 15.220302,26.442027 c 5.24283,31.407385 9.982715,57.396584 35.926182,63.328121 V 26.442027 Z"
       sodipodi:nodetypes="ccccc" />
    <path
       id="path12"
       style="fill:#9f9a93;fill-opacity:1;stroke-width:1.08587;stroke-linecap:round;stroke-linejoin:bevel"
       d="M 51.146484,6.2167969 V 93.128906 C 81.772144,86.320608 85.27659,58.985789 90.082031,24.496094 76.190847,16.626068 72.387392,7.3460763 51.146484,6.2167969 Z"
       sodipodi:nodetypes="cccc" />
    <path
       id="use12"
       style="fill:#adaaa3;fill-opacity:1;stroke-width:1.08587;stroke-linecap:round;stroke-linejoin:bevel"
       d="M 76.259918 14.81805 L 76.259918 76.634285 C 84.697843 63.953877 87.147336 45.558499 90.082037 24.495509 C 84.420043 21.287716 80.433961 17.846921 76.259918 14.81805 z " />
    <path
       id="path6"
       style="fill:#874023;fill-opacity:1;stroke-width:1.00195;stroke-linecap:round;stroke-linejoin:bevel"
       d="M 51.146484,9.575554 V 26.442027 89.770148 C 77.434823,85.192258 82.197902,58.395176 87.072667,26.442027 73.099011,21.386584 70.343668,10.020812 51.146484,9.575554 Z"
       sodipodi:nodetypes="ccccc" />
    <path
       id="path13"
       style="fill:#8e4425;fill-opacity:1;stroke-width:1.05034;stroke-linecap:round;stroke-linejoin:bevel"
       d="M 76.259918,20.991865 V 68.16375 C 81.778967,56.925664 84.410107,42.320752 87.072137,26.442544 82.703353,25.004281 79.332983,23.054858 76.259918,20.991865 Z" />
  </g>
  <g
     inkscape:groupmode="layer"
     id="use8"
     inkscape:label="Sword"
     transform="matrix(0.46302416,0.43099453,-0.43099453,0.46302416,105.46875,51.287857)">
    <path
       id="path2"
       style="fill:#d5d5d5;fill-opacity:1;stroke-width:1.15778;stroke-linecap:round;stroke-linejoin:bevel"
       d="m -77.326468,2.5 h 20.423751 v 74 h -20.423751 z" />
    <path
       id="path4"
       style="fill:#d5d5d5;fill-opacity:1;stroke-width:0.485268;stroke-linecap:round;stroke-linejoin:bevel"
       d="m -67.114592,-10.5 10.211875,13 h -20.423751 z"
       sodipodi:nodetypes="cccc" />
    <path
       id="path7"
       style="fill:#d5d5d5;fill-opacity:1;stroke-width:1.54789;stroke-linecap:round;stroke-linejoin:bevel"
       d="M -97.125,77.919061 -67.114592,70.875 -37.104185,77.919061 V 84.02665 H -97.125 Z"
       sodipodi:nodetypes="cccccc" />
    <path
       id="path9"
       style="fill:#d5d5d5;fill-opacity:1;stroke-width:0.618057;stroke-linecap:round;stroke-linejoin:bevel"
       d="m -73.158355,76 h 12.087525 v 35.63173 h -12.087525 z" />
  </g>
</svg>
