<?xml version="1.0" encoding="UTF-8"?>
<svg version="1.1" viewBox="0 0 100 100" xmlns="http://www.w3.org/2000/svg">
 <g transform="matrix(1.2842 0 0 1.1506 -15.681 -7.153)" stroke-linecap="round" stroke-linejoin="bevel">
  <path d="m51.146 6.2168c-23.978 1.4539-24.723 12.643-38.936 18.279 4.8275 34.648 10.177 61.38 38.936 68.633 30.626-6.8083 34.13-34.143 38.936-68.633-13.891-7.87-17.695-17.15-38.936-18.279z" fill="#c3bfba" stroke-width="1.0859"/>
  <path d="m51.146 9.5756c-19.298-0.020196-22.307 10.838-35.926 16.866 5.2428 31.407 9.9827 57.397 35.926 63.328v-63.328z" fill="#a05a36" stroke-width="1.002"/>
  <path d="m51.146 6.2168v86.912c30.626-6.8083 34.13-34.143 38.936-68.633-13.891-7.87-17.695-17.15-38.936-18.279z" fill="#9f9a93" stroke-width="1.0859"/>
  <path d="m76.26 14.818v61.816c8.4379-12.68 10.887-31.076 13.822-52.139-5.662-3.2078-9.6481-6.6486-13.822-9.6775z" fill="#adaaa3" stroke-width="1.0859"/>
  <path d="m51.146 9.5756v80.195c26.288-4.5779 31.051-31.375 35.926-63.328-13.974-5.0554-16.729-16.421-35.926-16.866z" fill="#874023" stroke-width="1.002"/>
  <path d="m76.26 20.992v47.172c5.519-11.238 8.1502-25.843 10.812-41.721-4.3688-1.4383-7.7392-3.3877-10.812-5.4507z" fill="#8e4425" stroke-width="1.0503"/>
 </g>
 <g transform="matrix(.46302 .43099 -.43099 .46302 105.47 51.288)" fill="#d5d5d5" stroke-linecap="round" stroke-linejoin="bevel">
  <path d="m-77.326 2.5h20.424v74h-20.424z" stroke-width="1.1578"/>
  <path d="m-67.115-10.5 10.212 13h-20.424z" stroke-width=".48527"/>
  <path d="m-97.125 77.919 30.01-7.0441 30.01 7.0441v6.1076h-60.021z" stroke-width="1.5479"/>
  <path d="m-73.158 76h12.088v35.632h-12.088z" stroke-width=".61806"/>
 </g>
</svg>
