<?xml version="1.0" encoding="UTF-8"?>
<svg version="1.1" viewBox="0 0 100 100" xmlns="http://www.w3.org/2000/svg">
 <g>
  <g transform="translate(-4.0518 2.7979)">
   <g stroke-width="1.0464">
    <path d="m103.59 68.462-6.1474-21.582-26.921-16.415-14.604 2.2411-5.3769 13.218 15.832 24.183 16.528 4.5242z" fill="#97b8be"/>
    <path d="m97.44 46.88-24.521 9.2431-16.434-19.703 14.034-5.9548z" fill="#9fbbc8"/>
    <path d="m56.483 36.421 15.764 19.715 1.1855 15.906 0.70898 0.16992 0.58594-15.953 2e-3 0.0039 22.711-9.3828c0.0152-0.3738-0.04565-0.15473-0.44336-0.26953l-22.615 8.791h-2e-3l-1.3105-0.09766 0.01563-0.01953z" fill="#c6dde5"/>
   </g>
   <path d="m73.433 72.041-1.1117-15.814-15.837-19.807-3.2584 2.8954-2.6885 6.6091 15.832 24.183z" fill="#749998" stroke-width=".65275"/>
   <path d="m70.518 30.466-14.604 2.2411-2.6885 6.6091 3.2584-2.8954z" fill="#638686" stroke-width=".65275"/>
   <path d="m71.376 53.343 18.778-10.905-14.768-9.0043-8.2153 16.352z" fill="#3f5656"/>
   <path d="m71.376 53.343-0.64794 0.89169-1.8569 16.558-2.5018-0.6848-4.3839-6.593 7.1336-12.737z" fill="#314242"/>
  </g>
  <g>
   <path d="m66.79 55.534 9.9935-15.98-5.4495-3.3227-6.2671 17.344z" fill="#3f5656"/>
   <g stroke-width="1.6031">
    <path d="m0.25729 80.527 4.2935-34.109 36.952-31.112h22.635l11.214 18.766-18.354 40.298-23.976 10.692z" fill="#97b8be"/>
    <path d="m4.5508 46.417 39.279 8.2983 20.308-33.654-22.635-5.7559z" fill="#b8ccd5"/>
    <path d="m40.881 54.093 4.8362 25.268 1.0324-0.42208-2.0072-25.736z" fill="#c2d8e5"/>
   </g>
   <path d="m5.1571 45.907c-0.57556 0.26626-0.71618-0.05201-0.6063 0.51048l36.571 8.9293 0.32686-1.3846z" fill="#d7e5ec"/>
   <path d="m44.759 54.734 19.379-33.673-20.754 32.423z" fill="#aac9d9"/>
   <path d="m46.75 78.939-1.9914-24.205 19.379-33.673 5.6068 3.6273 5.6068 9.3831-18.354 40.298z" fill="#5a7b7a"/>
   <path d="m41.502 15.305h22.635l5.6068 9.3831-5.6068-3.6273z" fill="#638887"/>
   <path d="m64.693 19.859-21.965 34.001 1.6549 2.5576z" fill="#e2dbdb"/>
  </g>
 </g>
</svg>
