<?xml version="1.0" encoding="UTF-8"?>
<svg version="1.1" viewBox="0 0 100 100" xmlns="http://www.w3.org/2000/svg">
 <g transform="matrix(1.1839 0 0 1.1705 .64914 -7.0973)" display="none">
  <path d="m10.25 13.25 13.886 27.863 6.3637 12.137-13 37.75 7.1631-1.1126 24.471 0.64246 5.6689-1.4996 11.197 2.4697s-13.5-38.25-13.5-39.25c0-0.59369 8.7438-15.71 8.7438-15.71l15.381-29.165-8.4672 1.0181-9.1397 2.1992-5.0241-3.4146-6.8724 4.7811-3.6371-5.8948-5.4853 10.176-11.378-6.0413-4.0192 0.33495-6.7536 4.0921z" fill="#eebb6b"/>
  <path d="m76.625 7.375-8.4672 1.0181-9.1397 2.1992-5.0241-3.4146-12.494 45.572 7.6344 37.78 5.6689-1.4996 11.197 2.4697-13.5-39.25c5.6058-9.4783 15.152-27.69 24.125-44.875z" fill="#cc9d54"/>
  <path d="m52.5 52.25 1.8037 5.6527-26.329 2.679 2.5248-7.3317z" fill="#ca1e1e"/>
  <path d="m37.999 16.24-1.8156 18.822-9.5629-24.863z" fill="#cc9d54"/>
  <path d="m24.663 89.887 7.1903-22.505-2.7256 22.622z" fill="#cc9d54"/>
 </g>
 <g transform="matrix(1.1839 0 0 1.1705 .64914 -7.0973)">
  <path d="m10.25 13.25 13.886 27.863 6.3637 12.137-13 37.75 7.1631-1.1126 24.471 0.64246 5.6689-1.4996 11.197 2.4697s-13.5-38.25-13.5-39.25c0-0.59369 8.7438-15.71 8.7438-15.71l15.381-29.165-8.4672 1.0181-9.1397 2.1992-5.0241-3.4146-6.8724 4.7811-3.6371-5.8948-5.4853 10.176-11.378-6.0413-4.0192 0.33495-6.7536 4.0921z" fill="#ecbc49"/>
  <path d="m76.625 7.375-8.4672 1.0181-9.1397 2.1992-5.0241-3.4146-12.494 45.572 7.6344 37.78 5.6689-1.4996 11.197 2.4697-13.5-39.25c5.6058-9.4783 15.152-27.69 24.125-44.875z" fill="#cc6e13"/>
  <path d="m52.5 52.25 1.8037 5.6527-26.329 2.679 2.5248-7.3317z" fill="#e43333"/>
  <path d="m37.999 16.24-1.8156 18.822-9.5629-24.863z" fill="#cc6e13"/>
  <path d="m24.663 89.887 7.1903-22.505-2.7256 22.622z" fill="#cc6e13"/>
 </g>
 <path d="m7.7072 30.338-3.4414 9.2559 36.682 25.273-36.877 24.736 3.3652 9.3066 42.018-28.184 41.791 28.795 3.4394-9.2578-36.68-25.271 36.877-24.736-3.3672-9.3066-42.016 28.182z" fill="#f21717"/>
</svg>
