<?xml version="1.0" encoding="UTF-8"?>
<!-- Created with Inkscape (http://www.inkscape.org/) -->
<svg version="1.1" viewBox="0 0 100 100" xmlns="http://www.w3.org/2000/svg">
 <g transform="matrix(1.1839 0 0 1.1705 .64914 -7.0973)" display="none">
  <path d="m10.25 13.25 13.886 27.863 6.3637 12.137-13 37.75 7.1631-1.1126 24.471 0.64246 5.6689-1.4996 11.197 2.4697s-13.5-38.25-13.5-39.25c0-0.59369 8.7438-15.71 8.7438-15.71l15.381-29.165-8.4672 1.0181-9.1397 2.1992-5.0241-3.4146-6.8724 4.7811-3.6371-5.8948-5.4853 10.176-11.378-6.0413-4.0192 0.33495-6.7536 4.0921z" fill="#eebb6b"/>
  <path d="m76.625 7.375-8.4672 1.0181-9.1397 2.1992-5.0241-3.4146-12.494 45.572 7.6344 37.78 5.6689-1.4996 11.197 2.4697-13.5-39.25c5.6058-9.4783 15.152-27.69 24.125-44.875z" fill="#cc9d54"/>
  <path d="m52.5 52.25 1.8037 5.6527-26.329 2.679 2.5248-7.3317z" fill="#ca1e1e"/>
  <path d="m37.999 16.24-1.8156 18.822-9.5629-24.863z" fill="#cc9d54"/>
  <path d="m24.663 89.887 7.1903-22.505-2.7256 22.622z" fill="#cc9d54"/>
 </g>
 <g transform="matrix(1.1839 0 0 1.1705 .64914 -7.0973)">
  <path d="m8.983 17.975 13.886 23.823 6.3637 10.377-13 32.276 7.1631-0.95124 24.471 0.5493 5.6689-1.2822 11.197 2.1116s-13.5-32.704-13.5-33.559c0-0.50761 8.7438-13.432 8.7438-13.432l15.381-24.936-8.4672 0.87051-9.1397 1.8803-5.0241-2.9195-6.8724 4.0878-3.6371-5.0401-5.4853 8.7004-11.378-5.1653-4.0192 0.28638-6.7536 3.4988z" fill="#f9bd0f"/>
  <path d="m75.358 12.952-8.4672 0.87051-9.1397 1.8803-5.0241-2.9195-12.494 38.964 7.6344 32.302 5.6689-1.2822 11.197 2.1116-13.5-33.559c5.6058-8.1039 15.152-23.675 24.125-38.368z" fill="#ad5d04"/>
  <path d="m51.233 51.32 1.8037 4.833-26.329 2.2906 2.5248-6.2686z" fill="#dd0b0b"/>
  <path d="m36.732 20.531-1.8156 16.093-9.5629-21.258z" fill="#ad5d04"/>
  <path d="m23.396 83.5 7.1903-19.242-2.7256 19.342z" fill="#ad5d04"/>
 </g>
</svg>
