<?xml version="1.0" encoding="UTF-8"?>
<svg version="1.1" viewBox="0 0 100 100" xmlns="http://www.w3.org/2000/svg" xmlns:xlink="http://www.w3.org/1999/xlink">
 <use id="use22" transform="translate(-29.571 -4.8321)" xlink:href="#g22"/>
 <path d="m21.655 59.397s3.8007 0 6.0104 7.0711c2.322 7.4303 11.314-1.5026 11.314-1.5026l5.922-12.374-9.4576-1.3258z" fill="#9d3e08"/>
 <g id="g22" transform="matrix(.25893 .52356 -.52356 .25893 77.471 26.35)">
  <path d="m26.268-0.9742a22.5 18.25 0 0 0-0.76894 4.7248l-0.49989 86.5a22.5 18.25 0 0 0 22.502 18.249 22.5 18.25 0 0 0 22.501-18.25l0.49989-86.5a22.5 18.25 0 0 0-22.502-18.249 22.5 18.25 0 0 0-21.732 13.525z" fill="#c3751f"/>
  <path d="m53.773-13.89 0.28115 104.61 15.277 3.9486a22.5 18.25 0 0 0 0.67027-4.417l0.49989-86.5a22.5 18.25 0 0 0-16.728-17.64z" fill="#9d3e08" stroke-width="1.67"/>
  <ellipse cx="47.5" cy="90.25" rx="18.908" ry="15.336" fill="#efce5c" stroke-width=".84034"/>
 </g>
 <use transform="translate(17.127 -17.755)" xlink:href="#use22"/>
 <g>
  <path d="m40.25 33.25 11.75-8 10.5-1.25z" fill="#c3751f"/>
  <path d="m74.25 74.25 10.5-3.75 2.5-5.5z" fill="#9d3e08"/>
  <path d="m5.1265 76.368-4.4194-5.1265s0.17678-8.6621 1.9445-10.783c1.7678-2.1213 5.4801-1.0607 5.4801-1.0607l-4.773 3.3588-1.0607 4.4194 0.35355 4.0659z" fill="#c3751f"/>
  <path d="m5.125 73.625-2.625-3.5 0.75-5 2-3.5 4.125 0.5-2.375 11.125z" fill="#efce5c"/>
  <path d="m78.489 18.738 5.4801 2.8284 0.53033 3.0052-2.2981 1.0607z" fill="#c3751f"/>
  <path d="m37.555 62.789s5.445-5.9905 17.321-0.72227c1.4538 0.64492 38.123-19.567 38.123-19.567s-6.125-6.25-14.25-0.125-20.875 6.75-20.875 6.75z" fill="#9d3e08"/>
 </g>
</svg>
